<svg xmlns="http://www.w3.org/2000/svg" xmlns:xlink="http://www.w3.org/1999/xlink" viewBox="0 0 103.07 103.02" width="255" height="255" preserveAspectRatio="xMidYMid"><defs><style type="text/css">.cls-1{isolation:isolate;}.cls-10,.cls-11,.cls-12,.cls-2,.cls-3,.cls-4,.cls-5,.cls-7,.cls-8,.cls-9{fill-rule:evenodd;}.cls-2{fill:url(#radial-gradient);}.cls-3{fill:#414141;mix-blend-mode:multiply;}.cls-4{fill:url(#radial-gradient-2);}.cls-5{fill:url(#radial-gradient-3);}.cls-6{fill:url(#radial-gradient-4);}.cls-7{fill:url(#radial-gradient-5);}.cls-8{fill:url(#linear-gradient);}.cls-9{fill:url(#radial-gradient-6);}.cls-10{fill:url(#radial-gradient-7);}.cls-11{fill:url(#radial-gradient-8);}.cls-12{fill:url(#radial-gradient-9);}</style><radialGradient id="radial-gradient" cx="72.93" cy="-12.07" r="117.62" gradientTransform="translate(52.91 -8.36) rotate(45)" gradientUnits="userSpaceOnUse"><stop offset="0" stop-color="#00a9fb"/><stop offset="0.22" stop-color="#0389f2"/><stop offset="0.57" stop-color="#075ee5"/><stop offset="0.84" stop-color="#0944de"/><stop offset="1" stop-color="#0a3adb"/></radialGradient><radialGradient id="radial-gradient-2" cx="4.35" cy="-4.64" r="59.45" gradientTransform="translate(52.91 -8.36) rotate(45)" gradientUnits="userSpaceOnUse"><stop offset="0" stop-color="#ffca07"/><stop offset="0.1" stop-color="#fec409"/><stop offset="0.22" stop-color="#fcb40d"/><stop offset="0.36" stop-color="#f89914"/><stop offset="0.51" stop-color="#f3731e"/><stop offset="0.6" stop-color="#f05b24"/><stop offset="0.74" stop-color="#dc4225"/><stop offset="0.9" stop-color="#c82a26"/><stop offset="1" stop-color="#c12126"/></radialGradient><radialGradient id="radial-gradient-3" cx="69.05" cy="40.58" r="29.57" xlink:href="#radial-gradient-2"/><radialGradient id="radial-gradient-4" cx="53.56" cy="86.78" r="14.41" gradientUnits="userSpaceOnUse"><stop offset="0" stop-color="#febc11"/><stop offset="0.29" stop-color="#fe9916"/><stop offset="0.56" stop-color="#ff7f1a"/><stop offset="0.72" stop-color="#ff751b"/></radialGradient><radialGradient id="radial-gradient-5" cx="69.56" cy="34.67" r="72.78" xlink:href="#radial-gradient-4"/><linearGradient id="linear-gradient" x1="-0.44" y1="18.26" x2="20.62" y2="18.26" gradientTransform="translate(52.91 -8.36) rotate(45)" gradientUnits="userSpaceOnUse"><stop offset="0" stop-color="#fff"/><stop offset="0.12" stop-color="#fff8f1"/><stop offset="0.36" stop-color="#ffe5cb"/><stop offset="0.68" stop-color="#ffc78f"/><stop offset="1" stop-color="#ffa64c"/></linearGradient><radialGradient id="radial-gradient-6" cx="5.85" cy="-4.29" r="56.55" xlink:href="#radial-gradient-2"/><radialGradient id="radial-gradient-7" cx="70.55" cy="102.65" r="62.29" xlink:href="#radial-gradient-2"/><radialGradient id="radial-gradient-8" cx="69.05" cy="40.5" r="29.54" xlink:href="#radial-gradient-2"/><radialGradient id="radial-gradient-9" cx="26.43" cy="25.69" r="51.18" xlink:href="#radial-gradient-2"/></defs><title>Sync Final Logo symbol_2</title><g class="cls-1"><g id="Layer_2" data-name="Layer 2"><g id="Light"><g id="Syntactics_Logo" data-name="Syntactics Logo"><g id="symbol_3d" data-name="symbol 3d"><path class="cls-2" d="M49.7,87.32A35.7,35.7,0,0,0,87.49,53.59,36,36,0,1,0,49.7,87.32Z"/><path class="cls-3" d="M60.75,86.25c.92-.24,1.83-.52,2.72-.82-.37-5-5.36-11.25-5.36-11.25C60.75,77.79,60.75,86,60.75,86.25Z"/><path class="cls-3" d="M87.57,50.64c-5.34-14.26-40.92-21.56-37-35.12,1,0,1.93.09,2.94.09a36.1,36.1,0,0,1,34,35Z"/><path class="cls-3" d="M32.07,81.58c.21.14.4.29.61.42s.62.34.92.52A35.88,35.88,0,0,0,49.39,87.3C62.59,75.9,16.62,65,15.67,49.43A36.28,36.28,0,0,0,32.07,81.58Z"/><path class="cls-4" d="M44.93,28.65c-11.82-16-2.36-21.49,12.9-18,3.54-1.66,5.09-3,4.63-4.12-7.79-4.59-20-4.7-24.75-1.67C33.92,7.29,32.93,15,34.46,19c1.27,3.8,5.33,7.58,10.25,9.47Z"/><path class="cls-5" d="M90.47,78.46c.34-.68,8.74-19.2-9.5-38.62,11.32,8.78,19.24,22.55,9.5,38.62Z"/><path class="cls-6" d="M57.92,73.89c12.58,15.17,4.29,22.88-13.38,18.5-1.63-.4-4.75,3.68-6.77,5,9.7,3.13,22.89,2.89,27.6-.13,3.79-2.44,4.81-8.13,3.3-12.19-1.36-3.71-6.12-7.73-10.34-10.94Z"/><path id="O1" class="cls-7" d="M12.68,24.56C-9.17,66.17,69.31,77.33,40.77,96.42c9.11,2.88,29.51,5.27,27-9.65-.68-4.73-4.31-8.52-9.29-12.32h0C46.79,65.91,27.65,58.39,19.88,44.38,14.29,34.26,14.28,25,17,16.9,23.85,3.76,40.37-.76,54.36.1c39.53,2.17,59.23,43.92,43,75.17v.17l-.25.41h0l-.08.09h0L97,76h0l.08.09h0l-.08.08h0l-.09.09h0a51.35,51.35,0,0,1-8.49,11.36,30.58,30.58,0,0,0,2.09-9.18c21.94-41.69-56.55-52.85-28-71.94-9.77-3-19-2.82-23.68.22C35,9.18,34.41,14.32,35.93,18.36,41,32.53,72.71,39.49,83.28,58.64,88.85,68.76,88.87,78,86.19,86.12A32.62,32.62,0,0,1,71.54,99.07a50.13,50.13,0,0,1-22.75,3.85A50.41,50.41,0,0,1,12,84.5C-.71,69-8,39.91,14.61,15.55c-2.18,2.34-1.68,5.73-1.93,9Z"/><path class="cls-8" d="M62.46,6.52c-9.77-3-19-2.82-23.68.22C35,9.18,34.41,14.32,35.93,18.36c1.45,4.3,5.41,7.76,9,10.38,0,0-12.57-7-10.48-17a9.12,9.12,0,0,1,3.78-5.81C42,3.29,50.49,3.47,51.42,3.56a32.82,32.82,0,0,1,11,3Z"/><path class="cls-9" d="M44.93,28.65c-11.82-16-2.36-21.49,12.9-18a19.17,19.17,0,0,1,4.63-4.12c-9.77-3-19-2.82-23.68.22C35,9.18,34.41,14.32,35.93,18.36c1.27,3.8,4.48,7,8.78,10.13Z"/><path class="cls-10" d="M58.11,74.18c11.83,16,2.47,21.68-12.79,18.2a18.56,18.56,0,0,1-4.55,4c9.7,3.13,18.89,2.89,23.6-.13,3.79-2.44,4.45-7.66,2.94-11.72-1.36-3.71-4.56-6.92-8.79-10.12Z"/><path class="cls-11" d="M90.47,78.46c.34-.68,8.74-19.2-9.5-38.62,10.47,9.46,18.58,21.44,9.5,38.62Z"/><path class="cls-12" d="M12.68,24.56c-.25.6-8.65,19.12,9.5,38.62-10.55-9.54-18.49-21.52-9.5-38.62Z"/></g></g></g></g></g></svg>